<svg xmlns:xlink="http://www.w3.org/1999/xlink" id="SVGDoc" width="60" height="24" xmlns="http://www.w3.org/2000/svg"
     version="1.1"
     viewBox="0 0 60 24">
    <defs>
        <path d="M280.01,587.16h14.14419v13.68186h-14.14419z" id="Path-0"/>
        <path d="M287.23778,587.16c-6.99906,-0.00134 -7.27098,5.63264 -7.23532,7.09506c0,0 -0.34282,6.5868 7.06413,6.5868c6.36443,0 6.67786,-4.1329 6.67786,-4.1329l-2.92824,0.00604c0,0 -0.57021,2.27688 -3.73752,2.21586c-4.07191,-0.07823 -4.22991,-4.15726 -4.22991,-4.15726h11.28042c0,0 0.85597,-7.61204 -6.89142,-7.6136zM282.94259,592.77611c0,0 0.20037,-3.68879 4.22624,-3.68991c4.01117,-0.00112 4.01117,3.68991 4.01117,3.68991z"
              id="Path-1"/>
        <path d="M301.96047,587.16327c-3.5192,-0.02034 -5.03314,2.15484 -5.03314,2.15484v-7.27811h-2.82146l0.04777,15.38209c0,0 -0.01686,1.79165 -0.12364,2.9758h2.74018l0.11759,-1.72795c0,0 1.27834,2.17519 5.01348,2.17519c3.73578,0 6.6852,-2.37858 6.76388,-6.7902c0.07847,-4.41139 -3.18502,-6.87155 -6.70466,-6.89166zM301.31417,598.87847c-4.44434,0.05766 -4.37215,-4.87405 -4.37215,-4.87405c0,0 -0.1619,-4.74711 4.36501,-4.86914c4.52648,-0.12204 4.37928,4.97038 4.37928,4.97038c0,0 0.0722,4.71492 -4.37214,4.77281z"
              id="Path-2"/>
        <path d="M321.70726,597.35996c0.00691,-1.98968 0.06333,-3.76635 0,-5.01956c-0.07414,-1.45303 0.05901,-4.96011 -6.01643,-5.21915c0,0 -5.8247,-0.54894 -6.4295,3.93375h2.97903c0,0 0.23129,-2.05382 3.25398,-1.99459c2.86058,0.05587 3.38173,1.50667 3.36703,3.29072c0,0 -2.45183,0.00715 -3.26997,0.01139c-1.47461,0.0076 -6.63485,0.17658 -7.11644,3.42662c-0.57302,3.86446 2.76266,5.07007 5.37251,5.05464c2.61006,-0.01519 4.09914,-0.82318 5.2052,-2.27174l0.11824,1.79902l2.59536,-0.01519c0,0 -0.06701,-1.00602 -0.05901,-2.99591zM314.33007,598.98352c0,0 -2.82398,0.00358 -2.98956,-2.33253c-0.17659,-2.49324 4.34456,-2.34327 4.34456,-2.34327l3.194,-0.00335c0,0 0.51722,4.74799 -4.549,4.67915z"
              id="Path-3"/>
        <path d="M320.16,587.65h3.27322l4.78759,9.87037l4.79754,-9.87037h2.95915l-8.66129,17.59572h-3.16493l2.50652,-4.88947l-6.4978,-12.70625"
              id="Path-4"/>
        <path d="M337.08894,588.35087v-0.36432h-0.10894v-0.13634h0.10894v-0.19021h0.19692v0.19021h0.23085v0.13634h-0.23085v0.33951c0,0.06168 0.03891,0.08672 0.10548,0.08672c0.04388,0 0.08344,-0.00805 0.12234,-0.02369v0.12963c-0.04885,0.02235 -0.10245,0.03554 -0.17746,0.03554c-0.14525,0 -0.24728,-0.05119 -0.24728,-0.20339"
              id="Path-5"/>
        <path d="M337.71,587.85453h0.19692v0.10482c0.05533,-0.06168 0.13034,-0.11935 0.26219,-0.11935c0.12321,0 0.21118,0.04872 0.25658,0.12204c0.06852,-0.07332 0.15995,-0.12204 0.29007,-0.12204c0.18676,0 0.30111,0.09566 0.30111,0.26486v0.44187h-0.19692v-0.39337c0,-0.11019 -0.06355,-0.1692 -0.174,-0.1692c-0.10786,0 -0.18417,0.06057 -0.18417,0.17188v0.39069h-0.19691v-0.39449c0,-0.10751 -0.06507,-0.16808 -0.17379,-0.16808c-0.10894,0 -0.18416,0.06571 -0.18416,0.17188v0.39069h-0.19692v-0.6922"
              id="Path-6"/>
        <clipPath id="clip-EA94B0AF-0E13-1765-2486-191A111C8D5C">
            <use xlink:href="#Path-0"/>
        </clipPath>
    </defs>
    <desc>Generated with Avocode.</desc>
    <g transform="matrix(1,0,0,1,-280,-582)">
        <g>
            <title>logos / amazon</title>
            <g>
                <title>ebay_logo</title>
                <g>
                    <title>Group 3</title>
                    <g>
                        <title>Clip 2</title>
                    </g>
                    <g clip-path="url(#clip-EA94B0AF-0E13-1765-2486-191A111C8D5C)">
                        <title>Fill 1</title>
                        <use xlink:href="#Path-1" fill="#dc383f" fill-opacity="1"/>
                    </g>
                </g>
                <g>
                    <title>Fill 4</title>
                    <use xlink:href="#Path-2" fill="#195d9c" fill-opacity="1"/>
                </g>
                <g>
                    <title>Fill 5</title>
                    <use xlink:href="#Path-3" fill="#efa72d" fill-opacity="1"/>
                </g>
                <g>
                    <title>Fill 6</title>
                    <use xlink:href="#Path-4" fill="#65b145" fill-opacity="1"/>
                </g>
                <g>
                    <title>Fill 7</title>
                    <use xlink:href="#Path-5" fill="#1a1919" fill-opacity="1"/>
                </g>
                <g>
                    <title>Fill 8</title>
                    <use xlink:href="#Path-6" fill="#1a1919" fill-opacity="1"/>
                </g>
            </g>
        </g>
    </g>
</svg>
